<?xml version="1.0" encoding="utf-8"?>
<!-- Generator: Adobe Illustrator 24.1.0, SVG Export Plug-In . SVG Version: 6.00 Build 0)  -->
<svg version="1.1" id="Layer" xmlns="http://www.w3.org/2000/svg" xmlns:xlink="http://www.w3.org/1999/xlink" x="0px" y="0px"
	 viewBox="0 0 512 512" style="enable-background:new 0 0 512 512;" xml:space="preserve">
<style type="text/css">
	.st0{fill:#5E6063;stroke:#5E6063;stroke-width:18;stroke-miterlimit:10;}
</style>
<path class="st0" d="M432,240H112.8L235,123.6c6.4-6.1,6.6-16.2,0.6-22.6c-6.1-6.4-16.2-6.6-22.6-0.6l-139.6,133
	c-6,6-9.4,14.1-9.4,22.6c0,8.5,3.3,16.6,9.7,22.9L213,411.6c3.1,3,7.1,4.4,11,4.4c4.2,0,8.4-1.7,11.6-5c6.1-6.4,5.8-16.5-0.6-22.6
	L112.3,272H432c8.8,0,16-7.2,16-16S440.8,240,432,240L432,240z"/>
</svg>
