<?xml version="1.0" encoding="utf-8"?>
<!-- Generator: Adobe Illustrator 24.1.0, SVG Export Plug-In . SVG Version: 6.00 Build 0)  -->
<svg version="1.1" id="Capa_1" xmlns="http://www.w3.org/2000/svg" xmlns:xlink="http://www.w3.org/1999/xlink" x="0px" y="0px"
	 viewBox="0 0 591.6 591.6" style="enable-background:new 0 0 591.6 591.6;" xml:space="preserve">
<style type="text/css">
	.st0{fill:#5E6063;stroke:#5E6063;stroke-width:20;stroke-miterlimit:10;}
</style>
<path class="st0" d="M528.4,13H158.9c-26.8,0-48.6,21.8-48.6,48.7v48.7H61.6c-26.8,0-48.6,21.8-48.6,48.7v370.2
	c0,26.9,21.8,48.7,48.6,48.7h369.5c26.8,0,48.6-21.8,48.6-48.7v-48.7h48.6c26.8,0,48.6-21.8,48.6-48.7V61.7
	C577,34.8,555.2,13,528.4,13z M460.3,529.3c0,16.2-13,29.2-29.2,29.2H61.6c-16.1,0-29.2-13.1-29.2-29.2V159.1
	c0-16.2,13-29.2,29.2-29.2h369.5c16.1,0,29.2,13.1,29.2,29.2V529.3z M557.6,431.9c0,16.2-13,29.2-29.2,29.2h-48.6v-302
	c0-26.9-21.8-48.7-48.6-48.7H129.7V61.7c0-16.2,13-29.2,29.2-29.2h369.5c16.1,0,29.2,13.1,29.2,29.2L557.6,431.9L557.6,431.9z"/>
</svg>
