<svg width="19px" height="19px" viewBox="0 0 19 19" version="1.1" xmlns="http://www.w3.org/2000/svg" xmlns:xlink="http://www.w3.org/1999/xlink">
    <g stroke="none" stroke-width="1" fill="none" fill-rule="evenodd">
        <g id="info" transform="translate(-0.100000, 0.400000)">
            <circle id="Oval" stroke="#909CA8" stroke-width="1.65" cx="9.20212941" cy="8.72015294" r="8.23097647"></circle>
            <path d="M9.53290588,3.94369412 C10.2282353,3.94369412 10.7838,4.51672941 10.7838,5.21089412 C10.7838,5.90622353 10.2084353,6.47925882 9.53290588,6.47925882 C8.83874118,6.47925882 8.26570588,5.90622353 8.26570588,5.19342353 C8.26570588,4.49925882 8.83874118,3.94369412 9.53290588,3.94369412 Z" id="Path" fill="#909CA8"></path>
            <path d="M11.3207294,12.4378941 C11.2881176,12.5438824 11.2170706,12.6638471 11.1483529,12.7337294 C10.6976118,13.2007765 10.1420471,13.4803059 9.47932941,13.4803059 C9.16718824,13.4803059 8.87251765,13.4803059 8.56037647,13.4290588 C8.05489412,13.3591765 7.41430588,12.7337294 7.49932941,12.0745059 C7.57037647,11.6214353 7.63792941,11.1706941 7.71014118,10.7187882 C7.84874118,9.93727059 7.98734118,9.13944706 8.12594118,8.3556 C8.12594118,8.30551765 8.14341176,8.25194118 8.14341176,8.19952941 C8.14341176,7.86991765 8.03858824,7.74878824 7.71014118,7.71384706 C7.57037647,7.69637647 7.43177647,7.67774118 7.29317647,7.6428 C7.13710588,7.59155294 7.04858824,7.45295294 7.06605882,7.33065882 C7.08469412,7.19205882 7.17204706,7.10470588 7.34442353,7.06976471 C7.43177647,7.05229412 7.53543529,7.05229412 7.63909412,7.05229412 C8.02228235,7.05229412 8.40547059,7.05229412 8.8038,7.05229412 C9.22076471,7.05229412 9.62025882,7.05229412 10.0372235,7.05229412 C10.3330588,7.05229412 10.5066,7.19089412 10.5066,7.48556471 C10.5066,7.72898824 10.4716588,7.97357647 10.4204118,8.21467059 C10.2643412,9.11964706 10.0896353,10.0048235 9.93356471,10.9074706 C9.88115294,11.2021412 9.81243529,11.4991412 9.77632941,11.7938118 C9.75885882,11.9324118 9.77632941,12.0896471 9.81127059,12.2282471 C9.86368235,12.4192588 10.0022824,12.5229176 10.1932941,12.5054471 C10.3493647,12.4868118 10.5066,12.4355647 10.6615059,12.3668471 C10.7838,12.3144353 10.8874588,12.2282471 11.0097529,12.1933059 C11.2170706,12.1257529 11.3743059,12.2480471 11.3207294,12.4378941 Z" id="Path" fill="#909CA8"></path>
        </g>
    </g>
</svg>
