<?xml version="1.0" encoding="utf-8"?>
<!-- Generator: Adobe Illustrator 24.1.0, SVG Export Plug-In . SVG Version: 6.00 Build 0)  -->
<svg version="1.1" id="Capa_1" xmlns="http://www.w3.org/2000/svg" xmlns:xlink="http://www.w3.org/1999/xlink" x="0px" y="0px"
	 viewBox="0 0 489.5 489.5" style="enable-background:new 0 0 489.5 489.5;" xml:space="preserve">
<style type="text/css">
	.st0{fill:#5E6063;}
</style>
<g>
	<path class="st0" d="M142.2,444.8C56.6,395.7,15.6,292.5,44.4,197.9C82,74.3,216.9,13.6,332.1,62L355,9.1c1.3-2.9,5.6-2.9,7.3,0
		l74,127c1.2,2.2,0.1,4.8-2.3,5.4l-143.3,32.8c-3.3,0.8-6.2-2.5-5-5.3l22.9-52.8c-81.1-33.6-175.3,7.1-205.4,91.5
		c-25.9,72.6,6.8,154.7,75.3,189.8c72.6,37.1,159.2,11.2,201.2-54.5c7.8-12.2,23.4-16.8,36.6-11.1c16.4,7.1,22.9,27.3,13.3,42.4
		C370,468.1,244.4,503.4,142.2,444.8z"/>
</g>
</svg>
