<?xml version="1.0" encoding="utf-8"?>
<!-- Generator: Adobe Illustrator 24.1.0, SVG Export Plug-In . SVG Version: 6.00 Build 0)  -->
<svg version="1.1" id="darkmode-icon" xmlns="http://www.w3.org/2000/svg" xmlns:xlink="http://www.w3.org/1999/xlink" x="0px"
	 y="0px" viewBox="0 0 17 18" style="enable-background:new 0 0 17 18;" xml:space="preserve">
<style type="text/css">
	.st0{fill:#909CA8;stroke:#909CA8;stroke-width:1.5583;}
</style>
<g>
	<g transform="translate(1.000000, 0.000000)">
		<path id="Path" class="st0" d="M15.2,12.9c-0.1-0.1-0.2-0.2-0.3-0.1C14.2,12.9,13.6,13,13,13c-4.1,0-7.4-3.3-7.4-7.5
			C5.5,4,6,2.6,6.8,1.4c0.1-0.1,0.1-0.3,0-0.4C6.7,0.9,6.6,0.9,6.4,0.9C2.9,1.8,0.4,5.1,0.4,8.8c0,4.5,3.6,8.1,8.1,8.1
			c2.7,0,5.2-1.4,6.7-3.6C15.3,13.1,15.3,13,15.2,12.9z"/>
	</g>
</g>
</svg>
