<svg id="darkmode-icon" width="17px" height="18px" viewBox="0 0 17 18" version="1.1" xmlns="http://www.w3.org/2000/svg"
     xmlns:xlink="http://www.w3.org/1999/xlink">
    <title>Darkmode Icon</title>
    <g stroke-width="1" fill="none" fill-rule="evenodd">
        <g transform="translate(1.000000, 0.000000)" fill="none" stroke="#909CA8" stroke-width="1.55833333">
            <path d="M15.1947294,12.8648444 C15.1179294,12.7549111 14.9824,12.7061778 14.8502588,12.7390444 C14.2437647,12.8965778 13.6158118,12.9747778 12.9867294,12.9747778 C8.88131765,12.9747778 5.54390588,9.62691111 5.54390588,5.50837778 C5.54390588,4.03731111 5.97082353,2.61271111 6.77835294,1.38984444 C6.85289412,1.27651111 6.84950588,1.13031111 6.77270588,1.02264444 C6.69477647,0.912711111 6.55811765,0.862844444 6.42823529,0.895711111 C2.86042353,1.82051111 0.367811765,5.05164444 0.367811765,8.75651111 C0.367811765,13.2309111 3.99661176,16.8723111 8.45552941,16.8723111 C11.1740235,16.8723111 13.6982588,15.5123111 15.2048941,13.2331778 C15.2760471,13.1198444 15.2726588,12.9736444 15.1947294,12.8648444 Z"
                  id="Path"></path>
        </g>
    </g>
</svg>
